<?xml version="1.0" encoding="iso-8859-1"?>
<!DOCTYPE svg PUBLIC "-//W3C//DTD SVG 1.1//EN" "http://www.w3.org/Graphics/SVG/1.1/DTD/svg11.dtd">
<svg 
 version="1.1" xmlns="http://www.w3.org/2000/svg" xmlns:xlink="http://www.w3.org/1999/xlink" x="0px" y="0px" width="512px"
	 height="512px" viewBox="0 0 512 512" style="enable-background:new 0 0 512 512;" xml:space="preserve"
><g id="7935ec95c421cee6d86eb22ecd14f7c9"><g></g><path style="display: inline; fill-rule: evenodd; clip-rule: evenodd;" d="M472.073,95.131H270.197l-31.23-41.639
		c-6.246-8.33-19.869-15.142-30.282-15.142h-75.702c-10.413,0-18.93,8.517-18.93,18.926v37.854v321.737
		c0,10.413-8.517,18.93-18.921,18.93c-10.413,0-18.93-8.517-18.93-18.93V95.131H38.351c-21.687,0-37.851,17.034-37.851,37.852
		l37.851,302.815c0,20.817,17.744,37.852,39.431,37.852h369.843c21.683,0,39.427-17.034,39.427-37.852L511.5,132.982
		C511.5,112.165,493.76,95.131,472.073,95.131z M426.329,313.962c0,5.88-6.354,10.646-14.193,10.646h-9.78
		c-1.996,7.743-5.065,15.046-9.016,21.77l6.974,6.975c5.552,5.543,6.675,13.406,2.516,17.562l-15.054,15.058
		c-4.158,4.158-12.026,3.036-17.569-2.512l-6.891-6.891c-6.833,4.055-14.265,7.198-22.148,9.228v9.781
		c0,7.843-4.771,14.197-10.646,14.197h-21.291c-5.885,0-10.646-6.354-10.646-14.197v-9.781c-7.889-2.029-15.324-5.165-22.152-9.228
		l-6.895,6.891c-5.539,5.548-13.403,6.67-17.562,2.512l-15.054-15.054c-4.159-4.159-3.036-12.022,2.508-17.565l6.974-6.975
		c-3.946-6.724-7.024-14.026-9.012-21.77h-9.781c-7.839,0-14.192-4.766-14.192-10.646V292.67c0-5.876,6.354-10.646,14.192-10.646
		h9.781c2.029-7.885,5.169-15.324,9.231-22.148l-6.895-6.891c-5.547-5.544-6.67-13.411-2.512-17.57l15.054-15.054
		c4.159-4.158,12.026-3.036,17.57,2.512l6.974,6.974c6.72-3.95,14.026-7.015,21.77-9.012v-9.78c0-7.839,4.762-14.197,10.646-14.197
		h21.291c5.876,0,10.646,6.358,10.646,14.197v9.78c7.738,1.997,15.045,5.065,21.77,9.017l6.97-6.979
		c5.548-5.548,13.403-6.67,17.562-2.512l15.054,15.054c4.158,4.159,3.036,12.026-2.499,17.57l-6.899,6.891
		c4.055,6.832,7.203,14.264,9.232,22.148h9.78c7.839,0,14.193,4.77,14.193,10.646V313.962z M373.1,303.315
		c0,29.352-23.874,53.229-53.225,53.229c-29.355,0-53.229-23.878-53.229-53.229c0-29.351,23.874-53.229,53.229-53.229
		C349.226,250.087,373.1,273.965,373.1,303.315z"></path></g></svg>